<?xml version="1.0" standalone="no"?>
<!DOCTYPE svg PUBLIC "-//W3C//DTD SVG 20010904//EN"
 "http://www.w3.org/TR/2001/REC-SVG-20010904/DTD/svg10.dtd">
<svg version="1.0" xmlns="http://www.w3.org/2000/svg"
 width="1212.000000pt" height="1212.000000pt" viewBox="0 0 1212.000000 1212.000000"
 preserveAspectRatio="xMidYMid meet">
<metadata>
Created by potrace 1.14, written by Peter Selinger 2001-2017
</metadata>
<g transform="translate(0.000000,1212.000000) scale(0.100000,-0.100000)"
fill="#000000" stroke="none">
<path d="M2592 7128 c-13 -13 -22 -17 -22 -10 0 8 -5 10 -12 6 -17 -11 -58
-11 -58 -1 0 4 -5 5 -10 2 -6 -4 -7 -12 -3 -18 4 -8 2 -8 -9 1 -13 10 -17 10
-21 -2 -3 -9 -15 -12 -31 -9 -16 3 -26 1 -26 -6 0 -9 -5 -9 -21 0 -15 8 -19 8
-15 0 4 -6 0 -11 -8 -12 -25 -2 -66 -1 -68 1 -2 1 -11 3 -21 5 -14 3 -16 0 -7
-10 9 -11 7 -12 -11 -8 -14 4 -25 0 -31 -11 -6 -11 -16 -15 -28 -11 -10 3 -21
1 -25 -5 -5 -8 -11 -8 -21 1 -9 7 -14 8 -14 1 0 -6 -14 -9 -32 -7 -20 3 -28 1
-20 -4 11 -7 11 -9 -2 -14 -9 -4 -16 -1 -16 6 0 7 -5 4 -11 -6 -8 -14 -14 -16
-25 -6 -8 6 -15 9 -15 5 -1 -3 -2 -10 -3 -15 -2 -16 -16 -25 -16 -10 0 11 -2
11 -10 -1 -5 -8 -10 -11 -10 -6 0 5 -10 1 -22 -10 -12 -10 -18 -13 -14 -7 5 9
2 11 -8 7 -9 -3 -13 -11 -9 -17 4 -6 1 -7 -8 -2 -23 15 -58 10 -74 -10 -15
-20 -15 -20 -9 0 l6 20 -13 -20 c-23 -36 -37 -46 -42 -32 -5 11 -11 -18 -8
-36 1 -5 -3 -6 -9 -2 -6 3 -8 10 -5 15 7 11 -22 7 -32 -5 -4 -4 -1 -5 7 0 8 4
2 -4 -14 -19 -21 -19 -35 -24 -50 -20 -12 4 -26 7 -33 7 -6 0 -9 6 -6 14 3 7
0 13 -7 13 -10 0 -10 3 -1 14 9 11 9 16 0 22 -7 4 -9 3 -6 -3 4 -6 0 -14 -9
-17 -8 -3 -13 -2 -11 2 3 4 -1 13 -9 19 -9 9 -15 9 -19 2 -4 -6 -14 -8 -22 -5
-8 3 -11 1 -8 -4 3 -6 -1 -10 -9 -10 -15 0 -21 -12 -17 -33 1 -4 -5 -10 -13
-13 -11 -4 -12 -13 -6 -35 5 -16 5 -31 0 -34 -5 -3 -7 -12 -3 -20 3 -8 0 -15
-6 -15 -6 0 -11 -5 -11 -11 0 -5 6 -7 13 -3 8 5 8 3 -2 -9 -7 -9 -17 -15 -21
-12 -4 3 -11 -2 -14 -11 -4 -10 -2 -13 7 -8 6 4 2 -3 -11 -15 -18 -18 -21 -26
-11 -37 8 -10 8 -14 0 -14 -6 0 -10 -3 -9 -7 3 -17 -15 -62 -23 -57 -5 3 -9 1
-9 -5 0 -5 5 -11 10 -13 6 -2 1 -9 -9 -15 -15 -9 -22 -10 -27 -1 -5 7 -3 8 6
3 8 -5 11 -4 6 3 -4 6 -14 8 -22 5 -11 -4 -12 -8 -4 -13 9 -6 9 -9 1 -14 -6
-4 -8 -13 -4 -19 4 -7 -1 -6 -10 2 -10 8 -20 11 -24 7 -3 -3 0 -6 7 -6 11 0
11 -3 2 -12 -7 -7 -12 -26 -12 -43 0 -39 -7 -47 -32 -34 -17 9 -18 8 -9 -9 9
-18 8 -19 -11 -14 -17 4 -20 2 -15 -11 4 -12 2 -14 -10 -10 -13 5 -15 2 -10
-12 7 -16 5 -16 -10 -4 -10 9 -14 9 -10 2 7 -12 -17 -73 -29 -73 -3 0 -2 5 2
12 4 7 3 8 -5 4 -6 -4 -10 -15 -9 -24 2 -12 -3 -16 -16 -14 -10 2 -15 -1 -12
-7 10 -15 -15 -25 -25 -10 -7 10 -8 6 -5 -13 3 -21 1 -25 -11 -21 -10 4 -14 0
-11 -13 2 -13 -3 -19 -14 -18 -10 1 -16 -3 -15 -10 1 -6 -5 -10 -13 -8 -12 3
-13 1 -2 -9 17 -19 15 -34 -4 -19 -8 8 -14 9 -13 4 5 -30 -37 -83 -61 -76 -13
3 -13 2 0 -7 13 -10 12 -14 -7 -30 -12 -10 -19 -21 -16 -25 4 -3 -1 -6 -10 -6
-20 0 -23 -16 -4 -24 6 -4 3 -5 -9 -2 -12 2 -21 -2 -21 -10 0 -7 5 -11 11 -8
6 3 2 -1 -8 -10 -10 -8 -24 -13 -30 -10 -6 3 -2 -2 8 -10 20 -16 13 -21 -24
-17 -13 2 -13 1 0 -8 13 -9 12 -12 -5 -26 -11 -9 -13 -14 -5 -10 12 5 12 4 -1
-7 -9 -7 -14 -19 -11 -26 2 -8 -6 -16 -18 -19 -17 -4 -19 -8 -8 -15 10 -8 10
-11 0 -15 -6 -2 -9 -10 -5 -16 4 -6 0 -8 -9 -5 -9 4 -15 0 -15 -8 0 -9 7 -13
16 -9 12 4 11 1 -3 -9 -10 -8 -15 -19 -12 -25 4 -5 2 -12 -3 -16 -6 -3 -8 -12
-5 -19 3 -8 0 -17 -5 -21 -6 -3 -8 -12 -4 -18 5 -8 2 -8 -8 0 -14 11 -16 9
-14 -17 1 -17 -4 -35 -12 -42 -11 -9 -11 -13 -1 -19 10 -7 9 -9 -5 -9 -9 0
-16 -3 -16 -7 4 -22 -2 -33 -13 -27 -10 5 -10 4 -2 -5 13 -14 7 -51 -8 -51 -5
0 -8 -8 -6 -17 2 -11 -2 -17 -11 -15 -11 2 -12 0 -4 -10 8 -10 8 -18 -2 -32
-8 -10 -11 -24 -8 -32 3 -8 0 -14 -7 -14 -7 0 -10 -7 -6 -15 3 -8 0 -15 -7
-15 -8 0 -6 -4 3 -10 13 -9 7 -14 -12 -11 -4 0 -5 -6 -2 -14 4 -8 11 -12 17
-8 6 3 7 1 3 -6 -4 -6 -11 -9 -14 -7 -4 2 -12 -7 -19 -20 -8 -17 -8 -26 -1
-31 7 -4 8 -1 3 7 -6 9 -4 11 4 6 9 -6 9 -12 -3 -25 -9 -10 -16 -25 -16 -34 0
-9 -5 -19 -11 -23 -8 -4 -7 -9 2 -15 11 -7 11 -9 1 -9 -8 0 -11 -11 -9 -35 3
-20 0 -35 -6 -35 -6 0 -7 -3 -4 -7 4 -3 2 -12 -4 -20 -9 -10 -8 -13 2 -13 12
0 12 -2 0 -9 -9 -6 -12 -21 -9 -45 2 -20 0 -36 -5 -36 -4 0 -5 -5 -1 -11 6
-11 6 -150 0 -193 -1 -10 0 -38 4 -62 4 -28 3 -45 -4 -48 -7 -3 -6 -8 3 -14 7
-5 9 -12 4 -15 -5 -3 -6 -33 -3 -66 3 -34 2 -61 -3 -61 -4 0 -5 -6 0 -12 4 -7
6 -21 4 -32 -1 -11 2 -16 8 -12 15 10 14 -7 -1 -23 -10 -11 -10 -13 0 -7 12 7
17 -11 13 -43 -2 -8 2 -10 11 -5 10 6 10 4 -1 -9 -11 -13 -11 -17 -1 -17 8 0
10 -3 7 -7 -4 -3 -2 -12 4 -20 6 -7 7 -13 2 -13 -5 0 -8 -14 -5 -31 3 -22 8
-29 20 -24 12 4 11 1 -3 -15 -14 -16 -15 -21 -5 -18 11 2 14 -5 12 -26 -3 -18
0 -26 7 -22 7 5 11 -6 11 -31 0 -22 6 -45 13 -52 10 -11 9 -12 -2 -6 -9 5 -7
-1 4 -19 10 -14 14 -26 9 -26 -4 0 0 -6 11 -13 13 -10 15 -16 6 -21 -6 -4 -9
-12 -5 -17 3 -5 9 -7 14 -4 9 6 8 -14 -3 -31 -7 -13 1 -24 17 -24 6 0 4 5 -4
11 -13 9 -13 10 0 7 8 -3 16 -20 18 -44 2 -21 8 -45 14 -51 6 -7 8 -20 4 -28
-3 -8 0 -15 7 -15 9 0 9 -2 0 -8 -7 -5 -9 -13 -3 -21 4 -8 4 -24 0 -37 -6 -14
-5 -26 1 -29 5 -4 7 -11 4 -16 -4 -5 -1 -9 6 -9 8 0 7 -5 -2 -17 -12 -14 -12
-16 0 -8 11 6 13 3 9 -12 -3 -11 -1 -28 5 -38 7 -13 6 -16 -2 -11 -6 4 -11 1
-11 -8 0 -10 -6 -13 -16 -9 -10 4 -17 -1 -21 -16 -3 -11 -9 -18 -14 -15 -5 3
-6 11 -2 17 3 7 -3 3 -15 -7 -13 -11 -22 -14 -22 -7 0 8 -5 9 -19 2 -10 -6
-22 -7 -26 -3 -3 4 -13 -2 -22 -13 -10 -13 -13 -15 -11 -5 2 9 -1 15 -7 15 -5
0 -9 -4 -7 -8 1 -5 -10 -7 -25 -6 -16 2 -34 0 -41 -4 -7 -5 -12 -3 -12 3 0 6
-5 8 -12 3 -17 -10 -38 -10 -66 -1 -15 5 -21 4 -17 -2 3 -6 2 -10 -4 -10 -5 0
-13 5 -16 10 -4 7 -13 6 -26 -1 -11 -6 -27 -8 -35 -5 -8 3 -14 0 -14 -7 0 -8
-4 -6 -10 3 -5 8 -10 10 -10 4 0 -7 -14 -14 -30 -16 -17 -3 -30 -1 -30 4 0 5
-5 6 -12 2 -18 -12 -62 -11 -70 0 -5 7 -11 8 -15 1 -12 -15 -31 -17 -53 -5
-13 7 -21 7 -26 -2 -5 -7 -3 -8 6 -3 9 5 11 4 6 -3 -5 -9 -13 -9 -27 -2 -19
11 -19 -10 -19 -1710 l0 -1720 6060 0 6060 0 0 1413 0 1412 -21 13 c-12 8 -18
9 -14 3 3 -6 1 -11 -4 -11 -6 0 -11 5 -11 11 0 6 -7 8 -16 5 -8 -3 -13 -2 -10
3 3 5 -1 12 -10 15 -8 3 -12 2 -9 -4 3 -6 2 -10 -4 -10 -5 0 -13 5 -16 10 -4
7 -14 6 -28 -1 -15 -9 -22 -9 -25 -1 -2 6 -10 8 -19 5 -10 -4 -14 -2 -10 4 3
5 0 10 -8 10 -8 0 -12 -4 -9 -9 3 -4 -2 -5 -10 -2 -9 3 -16 11 -16 18 0 7 -3
7 -8 1 -8 -11 -62 -14 -62 -3 0 4 -9 5 -20 3 -11 -2 -23 1 -26 7 -5 7 -2 8 6
3 9 -5 11 -4 6 4 -5 8 -12 9 -20 2 -7 -6 -17 -6 -26 -1 -8 5 -19 6 -25 2 -16
-11 -35 -11 -35 -1 0 6 -8 5 -20 -1 -11 -6 -20 -7 -20 -1 0 5 -7 12 -16 15 -8
3 -12 2 -9 -4 3 -6 1 -10 -4 -10 -6 0 -11 5 -11 11 0 5 -4 7 -10 4 -5 -3 -10
0 -10 7 0 10 -2 10 -9 -1 -6 -9 -11 -10 -15 -2 -4 6 -15 11 -25 11 -9 0 -29 6
-44 13 -20 9 -25 17 -21 31 5 16 4 17 -9 5 -8 -8 -13 -17 -10 -21 2 -4 -3 -5
-11 -2 -14 5 -14 8 0 22 14 13 14 17 2 26 -15 12 -17 30 -6 42 4 4 2 14 -5 22
-9 13 -9 14 1 8 8 -5 12 -1 12 11 0 11 5 24 11 30 11 11 17 33 18 66 1 11 6
15 12 11 8 -5 8 -1 0 14 -7 14 -8 23 -1 27 6 4 8 11 5 16 -4 5 -2 9 4 9 10 0
9 19 -2 38 -5 7 -3 12 7 12 9 0 16 5 16 11 0 5 -4 7 -10 4 -6 -3 -7 1 -4 9 3
9 10 16 15 16 5 0 4 11 -1 25 -5 14 -6 25 -1 25 4 0 8 7 8 15 0 8 -3 15 -7 15
-4 0 -7 6 -7 14 0 8 6 12 14 9 9 -4 11 0 7 11 -4 9 -1 16 6 16 10 0 10 3 1 14
-8 10 -9 16 -1 21 7 4 7 12 0 25 -7 13 -6 20 3 23 9 4 9 6 -1 6 -9 1 -10 6 -3
19 6 11 6 24 1 32 -5 9 -5 19 2 27 7 9 7 13 -1 13 -8 0 -9 5 -2 18 6 11 6 24
1 32 -5 9 -5 19 2 27 7 9 7 13 -1 13 -8 0 -9 6 -2 18 6 11 6 24 0 35 -7 12 -6
17 2 17 9 0 9 3 0 14 -6 8 -14 31 -16 51 -3 20 -8 41 -11 46 -3 5 1 9 8 9 8 0
9 3 3 8 -5 4 -10 16 -10 27 0 11 5 23 10 27 6 5 5 8 -3 8 -7 0 -11 4 -8 9 4 5
0 12 -6 14 -10 4 -9 8 2 16 13 9 13 11 -2 11 -12 0 -16 6 -12 26 3 17 1 23 -7
19 -8 -5 -9 -1 -4 15 4 14 3 20 -2 17 -6 -4 -8 4 -6 17 3 13 0 27 -6 30 -5 4
-7 14 -4 23 4 9 2 14 -3 10 -9 -5 -13 7 -16 51 -1 6 -5 12 -9 12 -5 0 -6 7 -3
15 4 8 2 15 -4 15 -5 0 -13 7 -16 16 -5 14 -4 15 8 5 13 -11 13 -9 3 13 -7 14
-16 26 -22 26 -5 0 -3 5 5 10 11 7 11 10 2 10 -7 0 -11 4 -8 9 3 5 -1 12 -10
15 -10 4 -13 13 -9 26 4 13 2 20 -7 20 -11 0 -11 2 0 9 11 6 10 10 -3 15 -14
5 -15 9 -5 21 11 13 10 14 -5 9 -15 -6 -17 -3 -13 14 4 12 3 20 -2 17 -4 -3
-14 2 -21 11 -10 12 -10 17 0 23 9 6 6 10 -9 14 -12 3 -19 10 -16 15 3 5 -1
15 -10 22 -8 7 -13 19 -10 26 3 7 1 16 -4 19 -5 3 -7 12 -3 20 3 9 -1 23 -8
32 -12 14 -12 16 0 8 10 -5 12 -4 7 3 -4 7 -13 12 -21 12 -7 0 -16 7 -19 16
-3 8 -10 13 -15 9 -5 -3 -12 4 -16 15 -3 11 -10 20 -15 20 -5 0 -6 7 -3 17 4
10 2 14 -4 10 -12 -7 -33 36 -36 71 -1 22 -17 32 -17 10 0 -6 -3 -8 -6 -5 -4
4 -1 13 6 22 11 13 10 14 -6 8 -16 -6 -17 -5 -6 9 9 12 10 18 2 23 -8 5 -8 11
1 21 7 8 7 14 1 14 -5 0 -15 14 -22 30 -7 17 -17 30 -22 30 -6 0 -8 9 -5 20 3
10 0 18 -5 17 -6 -1 -13 4 -16 12 -3 9 0 11 8 6 9 -5 11 -4 6 4 -4 6 -10 9
-14 7 -8 -5 -44 19 -43 28 3 20 -1 26 -14 26 -8 0 -15 5 -15 11 0 5 6 7 13 3
8 -5 7 -2 -2 9 -10 12 -17 14 -26 7 -9 -8 -14 -6 -19 5 -3 9 -11 13 -18 9 -8
-5 -9 -2 -5 10 6 14 3 15 -13 6 -14 -7 -20 -7 -21 0 -1 5 -2 14 -3 19 0 5 -4
13 -8 17 -5 4 -8 15 -8 24 0 10 -7 23 -15 30 -8 7 -12 17 -9 22 4 6 -3 5 -15
-1 -19 -11 -21 -9 -21 14 0 17 -4 24 -12 19 -8 -5 -9 -2 -5 9 3 9 1 19 -5 23
-6 4 -8 3 -4 -4 3 -6 2 -14 -4 -17 -6 -4 -10 -3 -9 2 6 36 -3 54 -31 60 -17 3
-37 14 -44 25 -11 15 -15 16 -20 6 -3 -7 -4 -3 -2 10 2 12 1 20 -3 18 -13 -8
-43 22 -35 36 6 11 5 11 -8 0 -10 -8 -19 -9 -22 -3 -4 5 2 14 11 20 17 9 17
10 -2 10 -37 1 -55 4 -50 9 3 3 -2 13 -11 23 -9 10 -14 26 -10 35 4 11 2 15
-8 11 -22 -9 -37 13 -25 36 7 12 7 17 1 13 -5 -3 -13 1 -16 10 -4 10 -12 14
-22 10 -9 -3 -21 -3 -27 1 -15 9 -46 12 -45 4 2 -18 -4 -22 -17 -11 -12 10
-16 9 -20 -2 -6 -15 -39 -17 -52 -3 -5 4 -2 5 6 0 10 -5 12 -4 7 4 -4 6 -12 9
-17 5 -5 -3 -25 0 -45 6 -29 10 -33 14 -23 26 10 12 9 13 -5 8 -9 -3 -16 -11
-16 -17 0 -6 -6 -3 -13 8 -8 10 -19 15 -25 11 -7 -4 -12 -3 -12 2 0 5 -12 7
-26 4 -19 -3 -25 -1 -20 7 4 6 12 8 18 5 7 -4 8 -2 4 4 -5 9 -13 9 -26 2 -25
-13 -33 -13 -24 2 5 8 2 9 -9 5 -9 -3 -19 -2 -22 2 -2 5 -14 11 -25 14 -11 3
-18 2 -15 -2 6 -10 -33 -7 -42 4 -5 4 -2 5 4 1 9 -5 11 -2 6 9 -3 9 -9 13 -12
8 -8 -12 -51 -9 -78 5 -20 11 -22 10 -16 -5 5 -16 4 -16 -9 1 -8 10 -20 16
-26 12 -6 -3 -14 -2 -17 4 -5 8 -11 7 -21 -1 -12 -10 -17 -8 -29 7 -13 18 -14
18 -21 1 -6 -17 -7 -17 -21 3 -8 11 -19 18 -24 15 -19 -12 -49 -13 -49 -2 0 8
-3 8 -12 -1 -7 -7 -17 -8 -30 -1 -10 5 -18 6 -18 1 0 -5 -7 -9 -15 -9 -8 0
-15 5 -15 11 0 7 -3 7 -8 1 -10 -14 -32 -17 -32 -4 0 8 -4 8 -13 1 -7 -6 -18
-7 -27 -2 -7 4 -24 4 -36 0 -15 -6 -26 -5 -30 1 -4 6 -11 6 -20 -2 -11 -9 -14
-9 -14 0 0 9 -5 9 -20 1 -14 -8 -20 -8 -20 0 0 8 -6 8 -20 0 -13 -7 -20 -7
-20 -1 0 7 -9 7 -25 1 -17 -6 -25 -6 -25 1 0 6 -6 7 -12 2 -20 -12 -38 -12
-38 -1 0 7 -5 7 -13 -1 -10 -8 -17 -7 -25 1 -9 9 -12 9 -12 0 0 -7 -7 -12 -16
-12 -9 0 -12 -5 -8 -12 6 -10 5 -10 -8 -1 -8 7 -17 10 -20 7 -11 -11 -88 -11
-88 0 0 6 -4 5 -9 -3 -6 -9 -10 -10 -16 -2 -4 8 -11 9 -18 3 -7 -5 -20 -8 -29
-7 -10 2 -15 -2 -12 -10 3 -7 -3 -15 -13 -19 -10 -3 -25 -9 -33 -12 -13 -5
-13 -4 0 5 34 24 -9 9 -51 -18 -32 -20 -51 -26 -62 -20 -9 5 -18 5 -21 0 -3
-4 -17 -7 -31 -6 -14 2 -23 -1 -19 -6 3 -5 10 -6 16 -3 7 4 8 2 4 -5 -4 -6
-12 -9 -17 -5 -6 3 -16 -2 -23 -12 -10 -13 -15 -14 -21 -4 -6 9 -4 11 5 5 9
-6 11 -4 6 4 -6 10 -12 9 -24 -1 -10 -8 -27 -13 -39 -12 -12 0 -20 -2 -18 -6
3 -4 -2 -11 -11 -14 -8 -3 -12 -2 -9 4 3 6 2 10 -3 10 -6 0 -12 -6 -15 -14 -5
-13 -18 -16 -92 -17 -10 0 -26 -5 -34 -12 -12 -9 -13 -9 -7 0 5 9 2 11 -8 7
-9 -3 -13 -11 -9 -18 4 -6 -1 -5 -10 3 -12 9 -17 10 -17 2 0 -8 -5 -9 -18 -2
-10 6 -24 6 -32 1 -8 -5 -18 -6 -24 -3 -5 3 -7 2 -4 -3 3 -5 2 -20 -3 -33 -8
-20 -11 -22 -26 -10 -14 12 -16 12 -8 0 6 -11 4 -13 -10 -7 -16 6 -16 4 -4
-11 7 -10 9 -15 5 -11 -5 4 -15 0 -23 -10 -12 -16 -13 -15 -6 3 3 11 2 17 -2
12 -5 -4 -9 -44 -9 -90 -1 -68 -5 -88 -22 -110 -12 -14 -25 -23 -30 -19 -5 4
-2 -2 6 -12 13 -18 13 -19 -2 -14 -10 4 -19 1 -22 -8 -4 -10 -2 -12 6 -8 7 4
8 3 4 -5 -5 -7 -17 -9 -29 -5 -22 6 -22 6 -2 -10 l20 -15 -20 -2 c-11 -1 -23
-1 -26 -1 -3 1 -6 -6 -6 -13 0 -12 3 -12 16 -2 14 11 14 10 2 -5 -7 -10 -20
-18 -28 -18 -8 0 -11 -5 -7 -12 5 -8 2 -9 -12 -4 -10 4 -15 4 -11 0 4 -4 1
-14 -6 -22 -10 -13 -9 -14 2 -7 10 6 12 4 7 -4 -5 -7 -14 -10 -22 -7 -8 3 -13
2 -13 -2 1 -4 1 -16 0 -27 -1 -17 -3 -18 -11 -5 -9 13 -10 13 -10 0 0 -9 -9
-23 -20 -33 -12 -10 -18 -22 -14 -28 4 -7 -3 -6 -17 2 -23 12 -23 11 -9 -6 14
-17 13 -18 -8 -13 -18 5 -21 4 -13 -6 12 -14 -8 -37 -41 -49 -10 -4 -18 -13
-18 -22 0 -8 -7 -15 -15 -15 -8 0 -15 -4 -15 -10 0 -5 -7 -10 -17 -10 -9 0
-13 -3 -10 -6 12 -13 -13 -43 -31 -38 -9 3 -6 -1 7 -9 20 -12 21 -15 7 -20
-12 -5 -15 -3 -11 6 4 6 0 4 -8 -5 -8 -10 -18 -14 -23 -10 -4 4 -2 -1 6 -11
11 -16 11 -18 -1 -15 -8 2 -13 -4 -13 -15 2 -14 -1 -15 -12 -6 -12 10 -13 9
-8 -6 5 -12 4 -16 -4 -11 -7 4 -10 -1 -7 -14 2 -11 -1 -23 -7 -26 -7 -5 -8 -2
-3 6 6 9 4 11 -4 6 -7 -5 -10 -15 -7 -23 4 -10 2 -13 -8 -10 -9 4 -17 -2 -21
-14 -4 -10 -11 -16 -17 -13 -7 4 -8 2 -4 -5 4 -6 11 -9 15 -7 4 3 8 -1 8 -9 0
-8 -3 -12 -7 -10 -3 2 -12 0 -20 -6 -11 -6 -12 -9 -2 -9 7 0 10 -5 7 -10 -4
-6 -11 -8 -16 -5 -5 3 -6 -1 -3 -9 4 -9 1 -16 -6 -16 -9 0 -9 -4 1 -17 10 -11
10 -14 2 -9 -8 4 -13 2 -13 -6 0 -9 -3 -9 -10 2 -5 8 -10 10 -10 4 0 -5 5 -15
12 -22 9 -9 8 -13 -5 -17 -9 -4 -14 -15 -12 -27 3 -15 1 -17 -9 -9 -10 9 -13
6 -11 -14 2 -14 -1 -25 -6 -25 -6 0 -8 -4 -4 -9 3 -6 -5 -19 -17 -31 -21 -19
-21 -21 -3 -15 18 6 18 5 4 -7 -9 -7 -14 -19 -11 -27 3 -8 0 -11 -7 -7 -14 9
-10 -16 4 -26 6 -5 3 -8 -7 -8 -10 0 -15 -7 -13 -17 1 -10 -7 -31 -18 -47 -13
-18 -15 -26 -6 -21 11 7 12 6 2 -7 -7 -8 -10 -18 -6 -21 3 -4 1 -7 -6 -7 -7 0
-9 -4 -6 -10 3 -5 0 -10 -7 -10 -9 0 -9 -3 2 -10 13 -9 13 -10 0 -10 -12 0
-12 -2 -2 -9 11 -7 11 -9 -1 -14 -9 -3 -14 -14 -13 -24 2 -10 -2 -21 -8 -25
-8 -6 -6 -11 4 -18 13 -8 13 -10 -1 -10 -13 0 -16 -8 -13 -37 2 -20 -2 -43 -8
-51 -7 -8 -12 -52 -13 -108 0 -53 -5 -98 -10 -102 -6 -4 -11 -20 -11 -37 1
-24 -3 -30 -21 -29 -11 0 -19 -4 -17 -10 3 -7 -10 -11 -31 -11 -19 0 -35 3
-35 6 0 10 -34 5 -42 -6 -4 -5 -8 -1 -8 10 0 17 -2 17 -10 5 -7 -11 -10 -12
-10 -2 0 9 -7 11 -20 7 -12 -4 -20 -2 -20 5 0 7 -5 8 -17 1 -13 -7 -21 -5 -30
7 -7 10 -13 12 -13 5 0 -14 -40 -5 -40 9 0 7 -5 7 -13 0 -8 -7 -18 -7 -27 -2
-8 5 -21 5 -30 0 -11 -6 -21 -5 -28 2 -9 9 -12 8 -12 -2 0 -13 -2 -13 -10 0
-5 8 -10 11 -10 6 0 -4 -10 -1 -23 7 -15 9 -29 12 -37 7 -8 -5 -19 -5 -25 0
-6 5 -29 11 -51 13 -21 2 -49 9 -61 15 -19 10 -23 10 -23 0 0 -9 -3 -9 -8 -2
-4 5 -29 11 -55 11 -27 1 -55 7 -63 14 -8 6 -17 9 -21 5 -3 -3 0 -6 7 -6 7 0
10 -3 7 -6 -4 -4 -13 -1 -22 6 -8 7 -15 9 -15 5 0 -4 -7 -2 -15 5 -8 7 -15 8
-15 3 0 -7 -20 -9 -62 -4 -4 1 -5 9 -2 19 5 14 4 15 -5 2 -9 -13 -14 -13 -32
-2 -11 8 -18 9 -15 3 4 -5 -2 -9 -14 -8 -11 1 -20 5 -20 9 0 5 -9 4 -20 -2
-14 -7 -20 -7 -20 0 0 5 -3 9 -7 9 -24 -4 -43 2 -37 12 5 8 1 8 -13 0 -14 -7
-23 -7 -31 1 -9 9 -12 9 -12 -2 0 -9 -5 -8 -15 6 -11 14 -14 15 -15 4 0 -13
-1 -13 -10 0 -5 8 -12 11 -15 8 -4 -4 -18 -3 -32 3 -15 5 -22 5 -18 0 3 -6 -4
-9 -15 -8 -11 1 -20 4 -20 7 0 7 -81 3 -102 -5 -11 -5 -18 -3 -18 5 0 10 -3
10 -15 0 -8 -7 -15 -9 -15 -4 0 5 -5 2 -10 -6 -9 -13 -11 -13 -20 0 -8 13 -10
12 -11 -5 0 -11 -3 -14 -6 -7 -2 6 -9 9 -15 6 -5 -3 -25 -6 -44 -6 -19 0 -31
-4 -28 -9 3 -6 -5 -7 -22 -3 -18 5 -25 3 -20 -4 4 -7 -2 -10 -14 -9 -11 1 -20
5 -20 10 0 4 -6 5 -12 0 -7 -4 -26 -8 -43 -8 -16 0 -37 -5 -45 -10 -22 -14
-40 -15 -40 -3 0 6 -8 4 -18 -5 -15 -13 -21 -14 -31 -4 -7 6 -12 8 -11 2 5
-21 -1 -25 -19 -15 -12 6 -22 6 -26 1 -3 -6 -14 -8 -25 -6 -11 2 -20 0 -20 -4
0 -5 -9 -11 -20 -14 -13 -3 -18 -1 -13 6 5 9 3 9 -8 1 -14 -10 -55 -11 -65 -1
-3 3 -17 2 -30 -3 -17 -7 -24 -6 -24 3 0 7 -3 8 -8 2 -9 -13 -82 -15 -82 -2 0
5 -8 3 -17 -4 -14 -12 -16 -12 -8 0 6 10 4 12 -6 6 -20 -13 -49 -13 -49 -1 0
6 -5 4 -10 -4 -6 -9 -10 -10 -10 -3 0 6 -9 14 -19 18 -11 3 -22 13 -25 22 -6
14 -4 14 10 2 16 -13 16 -12 3 8 -7 12 -15 20 -17 18 -7 -7 -29 20 -36 45 -6
19 -5 21 3 10 6 -8 11 -10 11 -4 0 6 -3 14 -7 18 -12 11 -9 40 4 54 7 7 9 20
6 29 -4 11 -3 14 5 9 8 -5 10 -2 6 9 -4 8 -2 21 4 28 6 7 9 25 8 40 -2 16 2
27 8 27 8 0 12 17 11 46 -1 25 3 51 9 58 6 6 11 38 11 71 -1 68 4 107 14 101
8 -6 7 451 -2 460 -4 4 -1 14 6 22 9 13 9 14 -1 8 -13 -8 -14 -6 -17 74 -1 30
-5 62 -9 71 -4 9 -8 34 -9 55 -1 22 -5 41 -9 44 -4 3 -9 21 -11 40 -2 19 -10
48 -16 64 -7 16 -10 35 -7 42 3 7 0 15 -7 18 -9 3 -9 5 1 5 6 1 12 6 12 12 0
5 -5 7 -12 3 -8 -5 -9 -2 -5 10 4 10 3 15 -3 11 -6 -3 -10 1 -10 10 0 9 -4 14
-8 11 -4 -2 -8 4 -8 14 0 11 6 16 16 13 8 -3 5 2 -7 11 -13 10 -23 22 -23 28
0 6 -8 21 -17 32 -17 20 -17 20 0 7 15 -12 17 -12 11 3 -3 9 -10 16 -14 16 -5
0 -7 11 -5 25 2 20 -1 23 -11 15 -10 -9 -11 -6 -7 10 4 13 -1 26 -13 36 -11 9
-12 13 -4 9 10 -4 9 -2 -2 8 -10 8 -18 24 -18 37 0 15 -5 20 -14 17 -10 -4
-12 0 -8 15 3 14 1 19 -6 14 -8 -5 -12 2 -12 19 0 18 -4 24 -12 19 -10 -6 -10
-5 -1 7 9 11 8 18 -1 31 -7 10 -16 15 -19 11 -4 -3 -7 1 -7 11 0 9 -4 14 -10
11 -5 -3 -10 -2 -10 4 0 5 6 12 13 14 7 3 5 6 -6 6 -18 1 -41 46 -32 61 3 5
-4 7 -16 5 -18 -4 -19 -2 -7 12 9 12 9 15 1 9 -12 -7 -18 5 -14 28 1 5 -5 6
-13 3 -11 -4 -13 -1 -9 10 5 12 3 14 -8 8 -12 -8 -12 -6 0 9 11 13 12 16 1 14
-7 -2 -23 11 -35 29 -12 18 -25 29 -29 26 -3 -4 -6 -1 -6 5 0 7 6 12 13 13 6
0 1 5 -12 10 -14 6 -21 15 -18 24 4 9 1 12 -9 8 -10 -4 -12 0 -7 13 6 17 5 18
-12 4 -11 -9 -16 -10 -11 -2 4 7 1 15 -8 18 -9 3 -16 14 -16 23 0 14 2 14 10
1 5 -8 10 -10 10 -4 0 6 -12 21 -27 35 -25 22 -26 22 -9 2 11 -13 14 -23 9
-23 -6 0 -22 24 -37 53 -14 28 -26 45 -26 37 0 -9 3 -20 8 -26 4 -5 0 -2 -9 8
-9 9 -20 14 -25 10 -5 -4 -2 2 6 12 14 18 13 19 -5 12 -11 -4 -16 -4 -13 0 4
3 0 13 -8 21 -8 8 -12 18 -10 22 3 4 -1 8 -9 8 -12 0 -12 -3 -2 -16 11 -14 10
-14 -6 -2 -10 8 -15 21 -12 29 4 10 0 13 -14 9 -14 -3 -18 -1 -14 9 3 8 10 11
17 7 6 -3 7 -2 3 2 -12 14 -38 15 -31 2 3 -7 -4 -1 -15 12 -12 12 -18 28 -14
35 3 6 3 8 -2 4 -15 -14 -46 12 -41 35 3 12 3 16 0 9 -5 -10 -11 -9 -27 5 -20
17 -21 17 -8 0 12 -15 12 -17 -3 -11 -14 5 -20 21 -18 44 0 3 -9 7 -21 7 -12
1 -23 7 -25 12 -2 5 -11 7 -20 4 -14 -6 -15 -4 -5 8 11 13 9 15 -10 15 -13 -1
-21 4 -19 12 1 8 -2 11 -8 7 -5 -3 -10 0 -10 7 0 9 -3 9 -10 -2 -8 -13 -10
-13 -10 1 0 9 -8 19 -19 22 -24 6 -27 30 -26 200 1 120 -1 137 -15 132 -11 -5
-12 -3 -3 6 8 8 9 19 3 35 -5 13 -8 24 -5 24 2 0 -8 12 -22 26 -19 19 -32 24
-50 19 -14 -3 -22 -2 -20 2 3 4 -5 8 -16 9 -28 1 -74 11 -86 18 -5 4 -12 2
-15 -3 -8 -13 -56 11 -49 24 3 5 0 5 -7 -2 -9 -9 -19 -7 -43 7 -17 11 -35 16
-40 13 -6 -3 -7 -1 -4 4 4 6 0 13 -8 16 -8 4 -17 -2 -21 -15 -5 -16 -8 -18
-15 -7 -8 12 -10 12 -18 0 -5 -7 -14 -11 -20 -7 -7 5 -8 1 -4 -10 5 -14 3 -15
-14 -6 -11 6 -23 9 -26 5 -4 -3 -26 -6 -49 -7 -56 -2 -68 -10 -69 -49 0 -30
-1 -31 -10 -9 -5 13 -7 27 -4 31 2 5 -6 6 -19 4 -13 -3 -27 0 -30 6 -5 8 -13
8 -26 1 -13 -7 -21 -7 -26 1 -4 8 -9 7 -15 -2 -6 -10 -9 -11 -9 -1 0 6 -7 12
-16 12 -9 0 -12 -5 -8 -12 5 -9 3 -9 -9 1 -9 7 -14 17 -12 21 3 5 -8 5 -25 0
-16 -5 -30 -5 -30 0 0 4 -8 7 -17 5 -10 -1 -33 3 -50 11 -18 7 -33 9 -33 5 0
-4 -7 -8 -15 -8 -8 0 -15 5 -15 10 0 6 -5 6 -12 1 -16 -11 -39 -11 -55 -1 -8
5 -13 3 -13 -3 0 -6 -5 -8 -12 -4 -16 10 -48 13 -48 4 0 -4 -11 -5 -25 -2 -14
2 -22 8 -19 13 3 5 0 9 -5 9 -6 0 -11 -6 -11 -12 0 -10 -3 -9 -9 1 -5 7 -13
11 -19 7 -6 -3 -14 -2 -17 4 -5 8 -11 7 -22 -1 -12 -10 -16 -10 -24 2 -7 12
-9 12 -9 -1 0 -13 -1 -13 -10 0 -8 12 -10 12 -10 1 0 -11 -3 -11 -15 -1 -12
10 -16 9 -21 -4 -3 -9 -10 -16 -16 -16 -5 0 -6 5 -3 10 3 6 2 10 -3 10 -6 0
-12 -6 -15 -14 -4 -9 -14 -12 -27 -9 -16 4 -18 8 -9 19 18 22 6 16 -19 -8z
m8143 -1678 c3 -6 -1 -7 -9 -4 -18 7 -21 14 -7 14 6 0 13 -4 16 -10z m104
-134 c-3 -3 -11 5 -18 17 -13 21 -12 21 5 5 10 -10 16 -20 13 -22z"/>
<path d="M2180 7060 c18 -12 30 -13 30 -2 0 4 -10 9 -22 9 -18 2 -20 0 -8 -7z"/>
<path d="M3987 7039 c7 -7 15 -10 18 -7 3 3 -2 9 -12 12 -14 6 -15 5 -6 -5z"/>
<path d="M1692 6878 c2 -7 -5 -12 -16 -11 -13 1 -15 -2 -7 -10 8 -8 15 -7 27
5 11 11 13 18 5 23 -7 4 -10 1 -9 -7z"/>
<path d="M4278 6453 c7 -3 16 -2 19 1 4 3 -2 6 -13 5 -11 0 -14 -3 -6 -6z"/>
<path d="M4650 6041 c0 -6 4 -13 10 -16 6 -3 7 1 4 9 -7 18 -14 21 -14 7z"/>
<path d="M10495 5680 c3 -5 8 -10 11 -10 2 0 4 5 4 10 0 6 -5 10 -11 10 -5 0
-7 -4 -4 -10z"/>
<path d="M10550 5621 c0 -5 5 -13 10 -16 6 -3 10 -2 10 4 0 5 -4 13 -10 16 -5
3 -10 2 -10 -4z"/>
<path d="M8183 5435 c0 -8 4 -12 9 -9 5 3 6 10 3 15 -9 13 -12 11 -12 -6z"/>
<path d="M11016 5167 c3 -10 9 -15 12 -12 3 3 0 11 -7 18 -10 9 -11 8 -5 -6z"/>
<path d="M7890 5082 c0 -6 -8 -9 -17 -6 -15 5 -16 4 -3 -5 16 -11 40 3 27 16
-4 3 -7 1 -7 -5z"/>
<path d="M11140 4881 c0 -6 4 -13 10 -16 6 -3 7 1 4 9 -7 18 -14 21 -14 7z"/>
<path d="M11197 4799 c7 -7 15 -10 18 -7 3 3 -2 9 -12 12 -14 6 -15 5 -6 -5z"/>
<path d="M11275 4651 c-3 -5 -2 -12 3 -15 5 -3 9 1 9 9 0 17 -3 19 -12 6z"/>
</g>
</svg>
